<svg width="24" height="25" viewBox="0 0 24 25" fill="none" xmlns="http://www.w3.org/2000/svg">
<path d="M14.6667 12.5C14.6667 13.0274 14.5103 13.543 14.2173 13.9815C13.9242 14.4201 13.5078 14.7618 13.0205 14.9637C12.5332 15.1655 11.997 15.2183 11.4798 15.1154C10.9625 15.0125 10.4873 14.7586 10.1144 14.3856C9.74144 14.0127 9.48747 13.5375 9.38457 13.0202C9.28168 12.503 9.33449 11.9668 9.53632 11.4795C9.73815 10.9922 10.0799 10.5758 10.5185 10.2827C10.957 9.98973 11.4726 9.83333 12 9.83333C12.7072 9.83333 13.3855 10.1143 13.8856 10.6144C14.3857 11.1145 14.6667 11.7928 14.6667 12.5ZM19.1111 10.7222H18.5867C18.4029 10.7215 18.2239 10.6638 18.0743 10.5572C17.9246 10.4505 17.8117 10.3001 17.7511 10.1267C17.672 9.96018 17.6466 9.77321 17.6785 9.59167C17.7103 9.41012 17.7979 9.24296 17.9289 9.11333L18.2933 8.74889C18.3766 8.66626 18.4428 8.56794 18.4879 8.45962C18.533 8.3513 18.5563 8.23512 18.5563 8.11778C18.5563 8.00043 18.533 7.88425 18.4879 7.77593C18.4428 7.66761 18.3766 7.5693 18.2933 7.48667L17.0311 6.21556C16.9485 6.13224 16.8502 6.06611 16.7418 6.02099C16.6335 5.97586 16.5173 5.95262 16.4 5.95262C16.2827 5.95262 16.1665 5.97586 16.0582 6.02099C15.9498 6.06611 15.8515 6.13224 15.7689 6.21556L15.4044 6.58C15.2748 6.71104 15.1077 6.79854 14.9261 6.83039C14.7446 6.86224 14.5576 6.83687 14.3911 6.75778C14.2129 6.69967 14.0576 6.58671 13.9475 6.43505C13.8373 6.28338 13.7779 6.10078 13.7778 5.91333V5.38889C13.7778 5.15314 13.6841 4.92705 13.5174 4.76035C13.3507 4.59365 13.1246 4.5 12.8889 4.5H11.1111C10.8754 4.5 10.6493 4.59365 10.4826 4.76035C10.3159 4.92705 10.2222 5.15314 10.2222 5.38889V5.91333C10.2215 6.09708 10.1638 6.27609 10.0572 6.42572C9.95053 6.57535 9.80012 6.68825 9.62667 6.74889V6.74889C9.46018 6.82798 9.27321 6.85335 9.09167 6.8215C8.91012 6.78965 8.74296 6.70215 8.61333 6.57111L8.24889 6.20667C8.16626 6.12335 8.06794 6.05722 7.95962 6.0121C7.8513 5.96697 7.73512 5.94373 7.61778 5.94373C7.50043 5.94373 7.38425 5.96697 7.27593 6.0121C7.16761 6.05722 7.0693 6.12335 6.98667 6.20667L5.71556 7.46889C5.63224 7.55152 5.56611 7.64983 5.52099 7.75815C5.47586 7.86647 5.45262 7.98266 5.45262 8.1C5.45262 8.21734 5.47586 8.33353 5.52099 8.44185C5.56611 8.55017 5.63224 8.64848 5.71556 8.73111L6.08 9.09556C6.21104 9.22518 6.29854 9.39234 6.33039 9.57389C6.36224 9.75544 6.33687 9.9424 6.25778 10.1089C6.19714 10.2823 6.08424 10.4327 5.93461 10.5394C5.78498 10.6461 5.60597 10.7037 5.42222 10.7044H4.88889C4.65314 10.7044 4.42705 10.7981 4.26035 10.9648C4.09365 11.1315 4 11.3576 4 11.5933V13.3711C4 13.6069 4.09365 13.833 4.26035 13.9997C4.42705 14.1663 4.65314 14.26 4.88889 14.26H5.41333C5.59708 14.2607 5.77609 14.3184 5.92572 14.425C6.07535 14.5317 6.18825 14.6821 6.24889 14.8556V14.8556C6.32798 15.022 6.35335 15.209 6.3215 15.3906C6.28965 15.5721 6.20215 15.7393 6.07111 15.8689L5.70667 16.2333C5.62335 16.316 5.55722 16.4143 5.5121 16.5226C5.46697 16.6309 5.44373 16.7471 5.44373 16.8644C5.44373 16.9818 5.46697 17.098 5.5121 17.2063C5.55722 17.3146 5.62335 17.4129 5.70667 17.4956L6.96 18.7489C7.04263 18.8322 7.14095 18.8983 7.24927 18.9435C7.35758 18.9886 7.47377 19.0118 7.59111 19.0118C7.70845 19.0118 7.82464 18.9886 7.93296 18.9435C8.04128 18.8983 8.13959 18.8322 8.22222 18.7489L8.58667 18.3844C8.71629 18.2534 8.88345 18.1659 9.065 18.1341C9.24655 18.1022 9.43351 18.1276 9.6 18.2067C9.77346 18.2673 9.92386 18.3802 10.0305 18.5298C10.1372 18.6795 10.1948 18.8585 10.1956 19.0422V19.6111C10.1956 19.8469 10.2892 20.073 10.4559 20.2397C10.6226 20.4064 10.8487 20.5 11.0844 20.5H12.8622C13.098 20.5 13.3241 20.4064 13.4908 20.2397C13.6575 20.073 13.7511 19.8469 13.7511 19.6111V19.0867C13.7518 18.9029 13.8095 18.7239 13.9162 18.5743C14.0228 18.4246 14.1732 18.3117 14.3467 18.2511C14.5132 18.172 14.7001 18.1466 14.8817 18.1785C15.0632 18.2103 15.2304 18.2979 15.36 18.4289L15.7244 18.7933C15.8071 18.8766 15.9054 18.9428 16.0137 18.9879C16.122 19.033 16.2382 19.0563 16.3556 19.0563C16.4729 19.0563 16.5891 19.033 16.6974 18.9879C16.8057 18.9428 16.904 18.8766 16.9867 18.7933L18.24 17.54C18.3233 17.4574 18.3894 17.3591 18.4346 17.2507C18.4797 17.1424 18.5029 17.0262 18.5029 16.9089C18.5029 16.7915 18.4797 16.6754 18.4346 16.567C18.3894 16.4587 18.3233 16.3604 18.24 16.2778L17.8756 15.9133C17.7445 15.7837 17.657 15.6165 17.6252 15.435C17.5933 15.2535 17.6187 15.0665 17.6978 14.9V14.9C17.7584 14.7265 17.8713 14.5761 18.0209 14.4695C18.1706 14.3628 18.3496 14.3052 18.5333 14.3044H19.1111C19.3469 14.3044 19.573 14.2108 19.7397 14.0441C19.9064 13.8774 20 13.6513 20 13.4156V11.6111C20 11.3754 19.9064 11.1493 19.7397 10.9826C19.573 10.8159 19.3469 10.7222 19.1111 10.7222Z" stroke="#8F92A1" stroke-linecap="round" stroke-linejoin="round"/>
</svg>
