<svg width="24" height="24" viewBox="0 0 24 24" fill="none" xmlns="http://www.w3.org/2000/svg">
<path d="M6.70225 13.7418C7.04938 14.089 7.04938 14.6518 6.70225 14.9989L5.84931 15.8519L17.9256 15.8519C18.4165 15.8519 18.8145 16.2498 18.8145 16.7407C18.8145 17.2317 18.4165 17.6296 17.9256 17.6296L5.84931 17.6296L6.70225 18.4826C7.04938 18.8297 7.04938 19.3925 6.70225 19.7396C6.35512 20.0868 5.79231 20.0868 5.44517 19.7396L3.0748 17.3693C2.72767 17.0221 2.72767 16.4593 3.0748 16.1122L5.44517 13.7418C5.79231 13.3947 6.35512 13.3947 6.70225 13.7418Z" fill="white"/>
<path d="M18.15 8.14815L17.297 9.00109C16.9499 9.34822 16.9499 9.91104 17.297 10.2582C17.6442 10.6053 18.207 10.6053 18.5541 10.2582L20.9245 7.8878C21.2716 7.54067 21.2716 6.97785 20.9245 6.63072L18.5541 4.26035C18.207 3.91322 17.6442 3.91322 17.297 4.26035C16.9499 4.60748 16.9499 5.17029 17.297 5.51743L18.15 6.37037L6.07371 6.37037C5.58279 6.37037 5.18482 6.76834 5.18482 7.25926C5.18482 7.75018 5.58279 8.14815 6.07371 8.14815L18.15 8.14815Z" fill="white"/>
</svg>
