<svg width="197" height="205" viewBox="0 0 197 205" fill="none" xmlns="http://www.w3.org/2000/svg">
<path d="M125.771 103.146C131.604 109.115 134.906 116.354 137.292 126.354L138.333 131.104L140.198 140.969C141.125 145.604 141.844 148.177 142.844 150.427C145.969 157.438 151.489 164.635 159.458 171.938C160.234 172.625 160.865 173.46 161.315 174.394C161.765 175.328 162.024 176.342 162.078 177.378C162.132 178.413 161.979 179.449 161.629 180.424C161.278 181.4 160.737 182.296 160.037 183.06C159.337 183.825 158.492 184.442 157.55 184.877C156.609 185.311 155.591 185.554 154.555 185.591C153.519 185.628 152.486 185.459 151.516 185.093C150.546 184.726 149.659 184.171 148.906 183.458C139.448 174.792 132.656 165.927 128.573 156.792C127.021 153.313 126.073 150.021 124.969 144.5L122.781 133.042L122.635 132.417C120.76 123.563 118.427 117.99 114.594 114.063C107.167 106.458 90.0415 108.469 85.4582 115.708C79.604 124.969 78.1145 140.667 82.7603 156.5C86.354 168.729 91.1145 180.771 97.052 192.615C97.5552 193.535 97.8678 194.548 97.9712 195.592C98.0746 196.636 97.9666 197.69 97.6536 198.692C97.3407 199.693 96.8292 200.621 96.1498 201.421C95.4703 202.22 94.6368 202.875 93.6989 203.345C92.761 203.816 91.738 204.092 90.6909 204.159C89.6437 204.225 88.594 204.08 87.6042 203.731C86.6145 203.383 85.705 202.839 84.93 202.132C84.155 201.425 83.5305 200.569 83.0936 199.615C76.8357 187.194 71.7074 174.235 67.7707 160.896C61.9165 140.979 63.854 120.646 72.2499 107.354C82.177 91.6667 111.229 88.25 125.771 103.146ZM101.125 127.26C102.151 127.226 103.174 127.393 104.135 127.754C105.096 128.115 105.977 128.662 106.727 129.363C107.476 130.065 108.081 130.907 108.505 131.842C108.929 132.777 109.164 133.786 109.198 134.813C109.733 150.904 114.961 166.488 124.239 179.646L126.281 182.417L129.406 186.479C130.605 188.042 131.169 189.999 130.987 191.96C130.804 193.92 129.887 195.74 128.421 197.054C126.954 198.368 125.045 199.079 123.076 199.046C121.107 199.013 119.224 198.238 117.802 196.875L117.031 196.01L113.906 191.948C101.376 175.667 94.2678 155.866 93.5832 135.333C93.5129 133.263 94.268 131.249 95.6823 129.735C97.0966 128.221 99.0543 127.331 101.125 127.26ZM62.4895 74.3125C84.4895 58.0313 113.26 58.9167 132.614 71.3542C142.302 77.5833 149.646 84.8438 154.521 93.1563C155.571 94.9437 155.867 97.075 155.346 99.0812C154.824 101.087 153.527 102.804 151.739 103.854C149.952 104.904 147.821 105.201 145.814 104.679C143.808 104.158 142.091 102.86 141.042 101.073C137.479 94.9896 131.896 89.4583 124.167 84.5C109.979 75.375 88.229 74.7083 71.7915 86.875C54.7186 99.5104 47.5311 121.156 49.677 143.979C50.8749 156.76 54.7186 169.677 61.2707 182.771C62.1772 184.622 62.3151 186.757 61.6544 188.71C60.9938 190.663 59.5881 192.275 57.7437 193.196C55.8993 194.117 53.7657 194.271 51.8079 193.626C49.85 192.98 48.2267 191.587 47.2915 189.75C39.9061 174.99 35.4999 160.198 34.1145 145.438C31.5103 117.625 40.4686 90.6146 62.4895 74.3125ZM158.114 119.115C160.182 119.01 162.207 119.73 163.744 121.116C165.281 122.503 166.205 124.443 166.312 126.51C166.635 132.802 168.187 137.938 170.917 142.073C173.208 145.542 175.229 147.542 176.781 148.323L177.417 148.573C179.4 149.172 181.064 150.535 182.043 152.362C183.022 154.188 183.235 156.329 182.635 158.313C182.036 160.296 180.673 161.96 178.846 162.939C177.02 163.918 174.879 164.131 172.896 163.531C167.198 161.813 162.302 157.406 157.864 150.667C153.542 144.104 151.177 136.271 150.708 127.323C150.655 126.298 150.804 125.273 151.147 124.306C151.489 123.339 152.019 122.449 152.706 121.687C153.393 120.925 154.223 120.305 155.149 119.864C156.075 119.423 157.079 119.168 158.104 119.115H158.114ZM80.479 40.0625C80.9002 40.9988 81.1328 42.0089 81.1634 43.0351C81.1939 44.0613 81.0219 45.0834 80.6572 46.0431C80.2925 47.0028 79.7422 47.8812 79.0378 48.6281C78.3334 49.3749 77.4887 49.9756 76.552 50.3958C57.3853 59.0208 43.2811 71.3125 34.0207 87.3542C22.427 107.438 19.2915 130.906 21.8957 150.688C22.0298 151.705 21.9621 152.739 21.6964 153.731C21.4308 154.723 20.9725 155.652 20.3476 156.467C19.0857 158.111 17.222 159.188 15.1665 159.458C14.1488 159.592 13.1146 159.525 12.123 159.259C11.1315 158.993 10.2019 158.535 9.38747 157.91C7.74262 156.648 6.66645 154.785 6.3957 152.729C3.3957 129.802 6.96862 102.958 20.4895 79.5417C31.4582 60.5729 48.0832 46.0833 70.1561 36.1458C71.0918 35.7243 72.1013 35.4912 73.127 35.46C74.1527 35.4287 75.1746 35.5998 76.1342 35.9635C77.0938 36.3272 77.9723 36.8764 78.7196 37.5797C79.4669 38.283 80.0683 39.1267 80.4895 40.0625H80.479ZM104.885 31.8646C123.948 32.25 142.927 41.0104 161.75 57.7604C180.739 74.6563 192.177 97.625 196.062 126.302C196.224 127.329 196.179 128.378 195.93 129.388C195.681 130.398 195.233 131.347 194.613 132.181C193.992 133.016 193.211 133.717 192.315 134.246C191.42 134.774 190.428 135.119 189.397 135.259C188.367 135.399 187.319 135.332 186.315 135.062C185.311 134.791 184.371 134.323 183.55 133.685C182.729 133.047 182.044 132.251 181.534 131.345C181.025 130.438 180.702 129.439 180.583 128.406C177.177 103.281 167.448 83.75 151.364 69.4375C135.114 54.9792 119.542 47.7917 104.573 47.4896C103.547 47.4691 102.535 47.2467 101.595 46.8351C100.655 46.4235 99.8052 45.8308 99.0943 45.0909C98.3833 44.3509 97.8251 43.4782 97.4514 42.5224C97.0778 41.5667 96.896 40.5468 96.9165 39.5208C96.9371 38.4949 97.1595 37.483 97.571 36.543C97.9826 35.603 98.5753 34.7533 99.3153 34.0423C100.055 33.3314 100.928 32.7731 101.884 32.3995C102.839 32.0258 103.859 31.8441 104.885 31.8646ZM33.3124 32.0104C33.9966 32.7767 34.5231 33.6703 34.8615 34.6403C35.2 35.6103 35.3438 36.6374 35.2848 37.663C35.2258 38.6887 34.9651 39.6926 34.5176 40.6173C34.0701 41.542 33.4446 42.3694 32.677 43.0521C29.8749 45.5313 26.9478 48.5 23.8853 51.9479C21.0103 55.1979 18.052 59.4063 15.0728 64.5833C14.5636 65.479 13.8822 66.2651 13.0679 66.8964C12.2536 67.5276 11.3225 67.9916 10.3282 68.2616C9.33388 68.5315 8.29598 68.6021 7.27426 68.4693C6.25254 68.3365 5.26719 68.0029 4.37492 67.4877C3.48264 66.9726 2.70109 66.286 2.07524 65.4676C1.44939 64.6491 0.991615 63.715 0.728266 62.7189C0.464916 61.7228 0.401193 60.6844 0.540769 59.6636C0.680345 58.6428 1.02046 57.6597 1.54154 56.7708C4.57762 51.3652 8.14752 46.2773 12.1978 41.5833C15.6457 37.6875 19.0103 34.2917 22.2811 31.375C23.0471 30.6923 23.9401 30.1672 24.9091 29.8297C25.878 29.4921 26.904 29.3488 27.9284 29.4078C28.9527 29.4668 29.9555 29.727 30.8792 30.1736C31.803 30.6201 32.6298 31.2443 33.3124 32.0104ZM101.906 1.11458C124.75 2.1875 143.885 8.4375 159.51 20.5C161.151 21.7667 162.222 23.6334 162.487 25.6895C162.751 27.7455 162.188 29.8225 160.922 31.4636C159.655 33.1046 157.788 34.1752 155.732 34.4399C153.676 34.7046 151.599 34.1417 149.958 32.875C136.989 22.8542 120.948 17.6563 101.177 16.7292C81.354 15.7917 65.1249 19.6875 52.0728 26.9271C48.0728 29.1458 43.5832 28.0313 41.3228 24.3542C40.7716 23.4844 40.4006 22.5128 40.2317 21.497C40.0627 20.4813 40.0993 19.4419 40.3392 18.4405C40.5791 17.4391 41.0175 16.4961 41.6284 15.6671C42.2393 14.8382 43.0103 14.1402 43.8957 13.6146C59.8853 4.19792 79.1249 0.0520836 101.917 1.11458H101.906Z" fill="#462D81"/>
</svg>
