<svg width="16" height="16" viewBox="0 0 16 16" fill="none" xmlns="http://www.w3.org/2000/svg">
<g clip-path="url(#clip0_209_262)">
<path d="M10.5 0C7.46 0 5 0.88 5 2V4C2 4.1 0 4.94 0 6V12C0 13.09 2.46 14 5.5 14H5.567C6.299 14 7.017 13.945 7.72 13.84C8.418 15.145 9.814 15.998 11.41 15.998C12.3691 15.9979 13.3017 15.6832 14.0647 15.1021C14.8277 14.521 15.379 13.7056 15.634 12.781C15.843 12.582 15.978 12.339 16.001 12.064V2C16.001 0.88 13.541 0 10.501 0H10.5ZM5.5 5C8 5 10 5.45 10 6C10 6.55 8 7 5.5 7C3 7 1 6.55 1 6C1 5.45 3 5 5.5 5ZM5.5 13C2.79 13 1.25 12.29 1 12V11.2C2.42902 11.7998 3.97397 12.0728 5.522 11.999C6.03 11.998 6.552 11.969 7.066 11.914C7.023 12.285 7.088 12.626 7.189 12.951C6.737 12.972 6.222 13.002 5.701 13.002L5.49 13H5.5ZM7.07 10.91C6.603 10.967 6.062 11 5.514 11H5.5C2.791 11 1.251 10.29 1.001 10V9.16C2.42562 9.77306 3.96923 10.0601 5.519 10C6.15345 9.99889 6.78715 9.95613 7.416 9.872C7.219 10.178 7.125 10.526 7.074 10.887L7.07 10.91ZM5.5 9C2.79 9 1.25 8.29 1 8V7.1C2.42462 7.71306 3.96823 8.00005 5.518 7.94C7.08043 7.99215 8.63492 7.69635 10.069 7.074L10.001 7.44C9.25033 7.69247 8.58179 8.143 8.066 8.744C7.314 8.909 6.455 9 5.575 9H5.498H5.5ZM11.41 15C10.5056 15 9.63827 14.6407 8.99877 14.0012C8.35927 13.3617 8 12.4944 8 11.59C8 10.6856 8.35927 9.81827 8.99877 9.17877C9.63827 8.53927 10.5056 8.18 11.41 8.18C12.3144 8.18 13.1817 8.53927 13.8212 9.17877C14.4607 9.81827 14.82 10.6856 14.82 11.59C14.82 12.4944 14.4607 13.3617 13.8212 14.0012C13.1817 14.6407 12.3144 15 11.41 15ZM15 8C14.825 8.167 14.615 8.3 14.383 8.386C14.095 8.142 13.783 7.926 13.445 7.752C13.9972 7.60897 14.5315 7.40435 15.038 7.142L15 8ZM15 6C14.76 6.31 13.39 6.94 11 7V6H11.011C12.407 6.00209 13.7878 5.7108 15.064 5.145L15 6ZM15 4C14.75 4.33 13.21 5 10.5 5H10.27C8.98017 4.33841 7.5506 3.9955 6.101 4H6V3.1C7.42462 3.71306 8.96823 4.00005 10.518 3.94C12.0804 3.99215 13.6349 3.69635 15.069 3.074L15.001 4H15ZM10.5 3C8 3 6 2.55 6 2C6 1.45 8 1 10.5 1C13 1 15 1.45 15 2C15 2.55 13 3 10.5 3Z" fill="black"/>
<path d="M10.5 11H11V14H12V9H11.5L10.5 11Z" fill="black"/>
</g>
<defs>
<clipPath id="clip0_209_262">
<rect width="16" height="16" fill="white"/>
</clipPath>
</defs>
</svg>
