<svg width="18" height="18" viewBox="0 0 18 18" fill="none" xmlns="http://www.w3.org/2000/svg">
<path fill-rule="evenodd" clip-rule="evenodd" d="M2.25 2.24454C2.25 1.83334 2.58537 1.5 2.99907 1.5H9.74067C10.1544 1.5 10.4897 1.83334 10.4897 2.24454V11.179C10.4897 11.5902 10.1544 11.9235 9.74067 11.9235H2.99907C2.58537 11.9235 2.25 11.5902 2.25 11.179V2.24454ZM3.74813 2.98907V10.4344H8.99161V2.98907H3.74813Z" fill="#462D81"/>
<path fill-rule="evenodd" clip-rule="evenodd" d="M12.0137 5.40054C12.1218 5.00363 12.5332 4.76898 12.9325 4.87643L15.9465 5.68744C16.3451 5.7947 16.5812 6.20235 16.4743 6.59881L13.9539 15.948C13.8469 16.3452 13.4361 16.5809 13.0365 16.4744L7.29941 14.9465C6.89981 14.8401 6.66267 14.4318 6.76974 14.0346C6.87682 13.6374 7.28756 13.4017 7.68716 13.5082L12.7007 14.8434L14.8338 6.93072L12.541 6.31376C12.1417 6.20631 11.9056 5.79745 12.0137 5.40054Z" fill="#462D81"/>
</svg>
