<svg width="24" height="24" viewBox="0 0 24 24" fill="none" xmlns="http://www.w3.org/2000/svg">
<path d="M11.8715 7.41065C12.1661 7.41065 12.4048 7.64943 12.4048 7.94398C12.4048 8.23853 12.1661 8.47732 11.8715 8.47732C11.577 8.47732 11.3382 8.23853 11.3382 7.94398C11.3382 7.64943 11.577 7.41065 11.8715 7.41065Z" fill="white"/>
<path d="M10.9333 16.2667H12M12 16.2667H13.0667M12 16.2667V10.9333H10.9333M20 12C20 16.4183 16.4183 20 12 20C7.58172 20 4 16.4183 4 12C4 7.58172 7.58172 4 12 4C16.4183 4 20 7.58172 20 12ZM12.4048 7.94398C12.4048 7.64943 12.1661 7.41065 11.8715 7.41065C11.577 7.41065 11.3382 7.64943 11.3382 7.94398C11.3382 8.23853 11.577 8.47732 11.8715 8.47732C12.1661 8.47732 12.4048 8.23853 12.4048 7.94398Z" stroke="white" stroke-linecap="round" stroke-linejoin="round"/>
</svg>
