<svg width="84" height="84" viewBox="0 0 84 84" fill="none" xmlns="http://www.w3.org/2000/svg">
<path d="M24.5 52.5C27.4167 52.5 29.8958 51.4792 31.9375 49.4375C33.9792 47.3958 35 44.9167 35 42C35 39.0833 33.9792 36.6042 31.9375 34.5625C29.8958 32.5208 27.4167 31.5 24.5 31.5C21.5833 31.5 19.1042 32.5208 17.0625 34.5625C15.0208 36.6042 14 39.0833 14 42C14 44.9167 15.0208 47.3958 17.0625 49.4375C19.1042 51.4792 21.5833 52.5 24.5 52.5ZM24.5 63C18.6667 63 13.7083 60.9583 9.625 56.875C5.54167 52.7917 3.5 47.8333 3.5 42C3.5 36.1667 5.54167 31.2083 9.625 27.125C13.7083 23.0417 18.6667 21 24.5 21C29.225 21 33.3527 22.3417 36.883 25.025C40.411 27.7083 42.875 31.0333 44.275 35H73.5875L80.5 41.9125L68.25 55.9125L59.5 49L52.5 56L45.5 49H44.275C42.8167 53.2 40.2792 56.5833 36.6625 59.15C33.0458 61.7167 28.9917 63 24.5 63Z" fill="#462D81"/>
</svg>
