<svg width="78" height="42" viewBox="0 0 78 42" fill="none" xmlns="http://www.w3.org/2000/svg">
<path d="M21.5 31.5C24.4167 31.5 26.8958 30.4792 28.9375 28.4375C30.9792 26.3958 32 23.9167 32 21C32 18.0833 30.9792 15.6042 28.9375 13.5625C26.8958 11.5208 24.4167 10.5 21.5 10.5C18.5833 10.5 16.1042 11.5208 14.0625 13.5625C12.0208 15.6042 11 18.0833 11 21C11 23.9167 12.0208 26.3958 14.0625 28.4375C16.1042 30.4792 18.5833 31.5 21.5 31.5ZM21.5 42C15.6667 42 10.7083 39.9583 6.625 35.875C2.54167 31.7917 0.5 26.8333 0.5 21C0.5 15.1667 2.54167 10.2083 6.625 6.125C10.7083 2.04167 15.6667 0 21.5 0C26.225 0 30.3527 1.34167 33.883 4.025C37.411 6.70833 39.875 10.0333 41.275 14H70.5875L77.5 20.9125L65.25 34.9125L56.5 28L49.5 35L42.5 28H41.275C39.8167 32.2 37.2792 35.5833 33.6625 38.15C30.0458 40.7167 25.9917 42 21.5 42Z" fill="#462D81"/>
</svg>
