<svg width="24" height="24" viewBox="0 0 24 24" fill="none" xmlns="http://www.w3.org/2000/svg">
<path d="M8.66667 9.33333H7.82091C7.33798 9.33333 6.87482 9.52518 6.53333 9.86667C6.19185 10.2082 6 10.6713 6 11.1542V18.1791C6 18.662 6.19185 19.1252 6.53333 19.4667C6.87482 19.8082 7.33798 20 7.82091 20H15.9124C16.3954 20 16.8585 19.8082 17.2 19.4667C17.5415 19.1252 17.7333 18.662 17.7333 18.1791V11.1542C17.7333 10.6713 17.5415 10.2082 17.2 9.86667C16.8585 9.52518 16.3954 9.33333 15.9124 9.33333H15.0667M8.66667 9.33333V5.82091C8.66667 5.33798 8.85851 4.87482 9.2 4.53333C9.54149 4.19185 10.0046 4 10.4876 4H13.2458C13.7287 4 14.1918 4.19185 14.5333 4.53333C14.8748 4.87482 15.0667 5.33798 15.0667 5.82091V9.33333M8.66667 9.33333H15.0667M13.4667 14.1333C13.4667 15.017 12.7503 15.7333 11.8667 15.7333C10.983 15.7333 10.2667 15.017 10.2667 14.1333C10.2667 13.2497 10.983 12.5333 11.8667 12.5333C12.7503 12.5333 13.4667 13.2497 13.4667 14.1333Z" stroke="white"/>
</svg>
