<svg width="18" height="18" viewBox="0 0 18 18" fill="none" xmlns="http://www.w3.org/2000/svg">
<g clip-path="url(#clip0_280_25807)">
<path d="M6.97183 0.0238695C6.89719 0.0457676 6.8277 0.0834659 6.76769 0.134631C6.70769 0.185797 6.65846 0.249333 6.6231 0.321229C6.52387 1.29329 6.50391 2.27236 6.56344 3.24793V6.04555H5.89627C5.27774 6.04555 5.21717 6.05319 5.06391 6.13159C4.99919 6.1645 4.94157 6.21077 4.89454 6.26759C4.84752 6.32442 4.81208 6.39062 4.79036 6.46216C4.76865 6.5337 4.76111 6.60908 4.76822 6.68374C4.77533 6.7584 4.79694 6.83078 4.83173 6.89648C4.88404 6.99783 6.36155 8.62326 8.42456 10.8424C8.53401 10.9889 8.67916 11.1022 8.84488 11.1704C9.17526 11.2717 9.11468 11.3262 11.1997 9.0669C12.2422 7.9339 13.1269 6.96915 13.1535 6.9223C13.2126 6.79098 13.2267 6.6425 13.1932 6.50169C13.1598 6.36089 13.081 6.23631 12.97 6.14881C12.8727 6.07423 12.8048 6.06658 12.1523 6.05319L11.4438 6.04172V3.26897C11.4438 0.197896 11.4548 0.326971 11.1961 0.124273L11.0575 0.0104765L9.06605 0.00283174C7.96571 -0.00386113 7.02322 0.00857152 6.97183 0.0238695Z" fill="#030319"/>
<path d="M0.300411 9.92063C-0.0217058 10.0966 0.000318731 9.79919 0.000318731 13.9363C0.000318731 17.5113 0.000318524 17.5935 0.0755709 17.7188C0.126706 17.7993 0.192873 17.8682 0.270126 17.9215C0.394017 17.9999 0.480282 17.9999 8.98105 17.9999C17.2203 17.9999 17.5763 17.9999 17.6993 17.9291C17.7933 17.8712 17.869 17.7857 17.9168 17.6834L17.9994 17.5113L17.9921 13.8704C17.981 10.2639 17.981 10.2295 17.9003 10.1233C17.8472 10.0517 17.7855 9.98746 17.7167 9.93211C17.6158 9.8537 17.5672 9.84987 15.7033 9.83649C14.4396 9.82884 13.7421 9.83649 13.6449 9.86805C13.3824 9.94262 13.3227 10.0669 12.9694 11.2822L12.6473 12.3874L8.98747 12.3989C5.52219 12.4066 5.32396 12.3989 5.30469 12.3406C5.05324 11.4304 4.66229 10.1415 4.61824 10.0784C4.55935 10.006 4.4865 9.94738 4.40442 9.90628C4.25024 9.83171 4.18325 9.82788 2.35333 9.82788C0.467434 9.83457 0.467435 9.83457 0.300411 9.92063Z" fill="#030319"/>
</g>
<defs>
<clipPath id="clip0_280_25807">
<rect width="18" height="18" fill="white"/>
</clipPath>
</defs>
</svg>
