<svg width="27" height="26" viewBox="0 0 27 26" fill="none" xmlns="http://www.w3.org/2000/svg">
<g clip-path="url(#clip0_280_25793)">
<path d="M11.1611 6.17396L11.0586 6.2809V11.1771L11.1664 11.2788C12.2882 11.6611 13.4374 11.959 14.6043 12.1699C16.4333 12.6045 17.9344 12.9679 17.9344 12.9819C17.9344 12.9958 16.4324 13.3626 14.6043 13.7938C13.4374 14.0047 12.2882 14.3026 11.1664 14.6849L11.0586 14.7866V19.6967L11.1664 19.7941C11.2301 19.8513 11.3105 19.8869 11.396 19.8958C11.5406 19.8958 24.855 13.3383 24.9435 13.227C24.9811 13.1504 25.0003 13.0662 24.9996 12.981C25.0004 12.8958 24.9812 12.8115 24.9435 12.735C24.8497 12.6193 11.5406 6.06616 11.3916 6.06616C11.3039 6.07214 11.2216 6.11061 11.1611 6.17396Z" fill="#030319"/>
<path d="M5.02621 6H7.33539C7.60756 6 7.86858 6.10725 8.06103 6.29817C8.25348 6.48908 8.3616 6.74802 8.3616 7.01801C8.3616 7.288 8.25348 7.54693 8.06103 7.73785C7.86858 7.92876 7.60756 8.03602 7.33539 8.03602H5.02621C4.75404 8.03602 4.49302 7.92876 4.30057 7.73785C4.10812 7.54693 4 7.288 4 7.01801C4 6.74802 4.10812 6.48908 4.30057 6.29817C4.49302 6.10725 4.75404 6 5.02621 6V6Z" fill="#030319"/>
<path d="M5.02621 10.073H7.33539C7.60756 10.073 7.86858 10.1803 8.06103 10.3712C8.25348 10.5621 8.3616 10.821 8.3616 11.091C8.3616 11.361 8.25348 11.6199 8.06103 11.8108C7.86858 12.0018 7.60756 12.109 7.33539 12.109H5.02621C4.75404 12.109 4.49302 12.0018 4.30057 11.8108C4.10812 11.6199 4 11.361 4 11.091C4 10.821 4.10812 10.5621 4.30057 10.3712C4.49302 10.1803 4.75404 10.073 5.02621 10.073V10.073Z" fill="#030319"/>
<path d="M5.02621 13.8911H7.33539C7.60756 13.8911 7.86858 13.9984 8.06103 14.1893C8.25348 14.3802 8.3616 14.6391 8.3616 14.9091C8.3616 15.1791 8.25348 15.438 8.06103 15.629C7.86858 15.8199 7.60756 15.9271 7.33539 15.9271H5.02621C4.75404 15.9271 4.49302 15.8199 4.30057 15.629C4.10812 15.438 4 15.1791 4 14.9091C4 14.6391 4.10812 14.3802 4.30057 14.1893C4.49302 13.9984 4.75404 13.8911 5.02621 13.8911V13.8911Z" fill="#030319"/>
<path d="M5.02621 17.9631H7.33539C7.60756 17.9631 7.86858 18.0704 8.06103 18.2613C8.25348 18.4522 8.3616 18.7112 8.3616 18.9811C8.3616 19.2511 8.25348 19.5101 8.06103 19.701C7.86858 19.8919 7.60756 19.9992 7.33539 19.9992H5.02621C4.75404 19.9992 4.49302 19.8919 4.30057 19.701C4.10812 19.5101 4 19.2511 4 18.9811C4 18.7112 4.10812 18.4522 4.30057 18.2613C4.49302 18.0704 4.75404 17.9631 5.02621 17.9631V17.9631Z" fill="#030319"/>
</g>
<defs>
<clipPath id="clip0_280_25793">
<rect width="21" height="14" fill="white" transform="translate(4 6)"/>
</clipPath>
</defs>
</svg>
