<svg width="13" height="13" viewBox="0 0 13 13" fill="none" xmlns="http://www.w3.org/2000/svg">
<g id="simple-icons:tether" clip-path="url(#clip0_641_1128)">
<path id="Vector" d="M9.95245 5.56088C9.95245 5.87338 8.83345 6.13488 7.33345 6.20088L7.33445 6.20138C7.08469 6.21489 6.83457 6.2204 6.58445 6.21788C6.19495 6.21788 5.91945 6.20638 5.82245 6.20188C4.31945 6.13538 3.19745 5.87388 3.19745 5.56088C3.19745 5.24788 4.31945 4.98588 5.82245 4.91888V5.94088C5.92045 5.94838 6.20195 5.96488 6.59095 5.96488C7.05745 5.96488 7.29095 5.94488 7.33345 5.94138V4.91988C8.83345 4.98638 9.95245 5.24838 9.95245 5.56088ZM12.5475 5.83388L6.63745 11.4969C6.6207 11.5129 6.5984 11.5219 6.5752 11.5219C6.55201 11.5219 6.52971 11.5129 6.51295 11.4969L0.603454 5.83388C0.589586 5.82085 0.580259 5.80373 0.576839 5.78501C0.57342 5.76629 0.576089 5.74697 0.584454 5.72988L2.77245 1.13388C2.77961 1.11834 2.79111 1.1052 2.80558 1.09606C2.82004 1.08692 2.83685 1.08217 2.85395 1.08238H10.298C10.3148 1.08246 10.3313 1.08734 10.3455 1.09647C10.3596 1.10559 10.3709 1.11857 10.378 1.13388L12.5665 5.72988C12.5748 5.74697 12.5775 5.76629 12.5741 5.78501C12.5707 5.80373 12.5613 5.82085 12.5475 5.83388ZM10.3085 5.63188C10.3085 5.22888 9.03245 4.89188 7.33495 4.81338V3.89938H9.42795V2.50438H3.72945V3.89938H5.82195V4.81388C4.12095 4.89188 2.84195 5.22888 2.84195 5.63238C2.84195 6.03638 4.12095 6.37238 5.82195 6.45138V9.38238H7.33445V6.45038C9.03145 6.37188 10.3085 6.03538 10.3085 5.63188Z" fill="black"/>
</g>
<defs>
<clipPath id="clip0_641_1128">
<rect width="12" height="12" fill="white" transform="translate(0.575455 0.30188)"/>
</clipPath>
</defs>
</svg>
