<svg width="25" height="24" viewBox="0 0 25 24" fill="none" xmlns="http://www.w3.org/2000/svg">
<path d="M7.20225 13.7418C7.54938 14.089 7.54938 14.6518 7.20225 14.9989L6.34931 15.8519L18.4256 15.8519C18.9165 15.8519 19.3145 16.2498 19.3145 16.7407C19.3145 17.2317 18.9165 17.6296 18.4256 17.6296L6.34931 17.6296L7.20225 18.4826C7.54938 18.8297 7.54938 19.3925 7.20225 19.7396C6.85512 20.0868 6.29231 20.0868 5.94517 19.7396L3.5748 17.3693C3.22767 17.0221 3.22767 16.4593 3.5748 16.1122L5.94517 13.7418C6.29231 13.3947 6.85512 13.3947 7.20225 13.7418Z" fill="#030319"/>
<path d="M18.65 8.14815L17.797 9.00109C17.4499 9.34822 17.4499 9.91104 17.797 10.2582C18.1442 10.6053 18.707 10.6053 19.0541 10.2582L21.4245 7.8878C21.7716 7.54067 21.7716 6.97785 21.4245 6.63072L19.0541 4.26035C18.707 3.91322 18.1442 3.91322 17.797 4.26035C17.4499 4.60748 17.4499 5.17029 17.797 5.51743L18.65 6.37037L6.57371 6.37037C6.08279 6.37037 5.68482 6.76834 5.68482 7.25926C5.68482 7.75018 6.08279 8.14815 6.57371 8.14815L18.65 8.14815Z" fill="#030319"/>
</svg>
