<svg width="24" height="24" viewBox="0 0 24 24" fill="none" xmlns="http://www.w3.org/2000/svg">
<path d="M14.8571 12.158C15.4171 12.731 15.7341 13.426 15.9631 14.386L16.0631 14.842L16.2421 15.789C16.3311 16.234 16.4001 16.481 16.4961 16.697C16.7961 17.37 17.3261 18.061 18.0911 18.762C18.1656 18.828 18.2262 18.9082 18.2693 18.9979C18.3125 19.0875 18.3374 19.1849 18.3426 19.2843C18.3478 19.3836 18.3331 19.4831 18.2995 19.5767C18.2658 19.6704 18.2139 19.7564 18.1467 19.8298C18.0795 19.9032 17.9983 19.9625 17.908 20.0042C17.8176 20.0459 17.7199 20.0692 17.6204 20.0728C17.5209 20.0763 17.4218 20.06 17.3287 20.0249C17.2356 19.9897 17.1504 19.9364 17.0781 19.868C16.1701 19.036 15.5181 18.185 15.1261 17.308C14.9771 16.974 14.8861 16.658 14.7801 16.128L14.5701 15.028L14.5561 14.968C14.3761 14.118 14.1521 13.583 13.7841 13.206C13.0711 12.476 11.4271 12.669 10.9871 13.364C10.4251 14.253 10.2821 15.76 10.7281 17.28C11.0731 18.454 11.5301 19.61 12.1001 20.747C12.1484 20.8354 12.1784 20.9326 12.1884 21.0328C12.1983 21.1331 12.1879 21.2343 12.1579 21.3304C12.1278 21.4265 12.0787 21.5157 12.0135 21.5924C11.9483 21.6692 11.8683 21.732 11.7782 21.7771C11.6882 21.8223 11.59 21.8488 11.4894 21.8552C11.3889 21.8616 11.2881 21.8476 11.1931 21.8142C11.0981 21.7808 11.0108 21.7286 10.9364 21.6607C10.862 21.5928 10.8021 21.5106 10.7601 21.419C10.1594 20.2266 9.66704 18.9826 9.28911 17.702C8.72711 15.79 8.91311 13.838 9.71911 12.562C10.6721 11.056 13.4611 10.728 14.8571 12.158ZM12.4911 14.473C12.5896 14.4697 12.6878 14.4858 12.7801 14.5204C12.8724 14.555 12.9569 14.6075 13.0289 14.6749C13.1009 14.7422 13.1589 14.8231 13.1996 14.9128C13.2403 15.0026 13.2629 15.0995 13.2661 15.198C13.3175 16.7428 13.8194 18.2388 14.7101 19.502L14.9061 19.768L15.2061 20.158C15.3212 20.308 15.3754 20.4959 15.3578 20.6841C15.3403 20.8723 15.2523 21.047 15.1115 21.1732C14.9707 21.2993 14.7875 21.3676 14.5985 21.3644C14.4094 21.3613 14.2286 21.2868 14.0921 21.156L14.0181 21.073L13.7181 20.683C12.5152 19.1201 11.8328 17.2192 11.7671 15.248C11.7604 15.0492 11.8329 14.8559 11.9686 14.7106C12.1044 14.5652 12.2923 14.4798 12.4911 14.473ZM8.78211 9.39C10.8941 7.827 13.6561 7.912 15.5141 9.106C16.4441 9.704 17.1491 10.401 17.6171 11.199C17.7179 11.3706 17.7464 11.5752 17.6963 11.7678C17.6462 11.9604 17.5217 12.1252 17.3501 12.226C17.1785 12.3268 16.9739 12.3553 16.7813 12.3052C16.5887 12.2551 16.4239 12.1306 16.3231 11.959C15.9811 11.375 15.4451 10.844 14.7031 10.368C13.3411 9.492 11.2531 9.428 9.67511 10.596C8.03611 11.809 7.34611 13.887 7.55211 16.078C7.66711 17.305 8.03611 18.545 8.66511 19.802C8.75213 19.9797 8.76537 20.1847 8.70195 20.3721C8.63853 20.5596 8.50358 20.7144 8.32652 20.8028C8.14946 20.8912 7.94463 20.906 7.75668 20.8441C7.56873 20.7821 7.41289 20.6484 7.32311 20.472C6.61411 19.055 6.19111 17.635 6.05811 16.218C5.80811 13.548 6.66811 10.955 8.78211 9.39ZM17.9621 13.691C18.1606 13.6809 18.355 13.75 18.5025 13.8832C18.6501 14.0163 18.7388 14.2025 18.7491 14.401C18.7801 15.005 18.9291 15.498 19.1911 15.895C19.4111 16.228 19.6051 16.42 19.7541 16.495L19.8151 16.519C20.0055 16.5765 20.1653 16.7074 20.2593 16.8827C20.3532 17.0581 20.3737 17.2636 20.3161 17.454C20.2586 17.6444 20.1277 17.8042 19.9524 17.8981C19.777 17.9921 19.5715 18.0126 19.3811 17.955C18.8341 17.79 18.3641 17.367 17.9381 16.72C17.5231 16.09 17.2961 15.338 17.2511 14.479C17.246 14.3806 17.2603 14.2822 17.2932 14.1894C17.3261 14.0966 17.377 14.0111 17.4429 13.9379C17.5088 13.8648 17.5885 13.8053 17.6774 13.7629C17.7664 13.7206 17.8628 13.6961 17.9611 13.691H17.9621ZM10.5091 6.102C10.5495 6.19188 10.5719 6.28885 10.5748 6.38736C10.5777 6.48588 10.5612 6.58401 10.5262 6.67614C10.4912 6.76826 10.4384 6.85259 10.3708 6.92429C10.3031 6.99599 10.222 7.05366 10.1321 7.094C8.29211 7.922 6.93811 9.102 6.04911 10.642C4.93611 12.57 4.63511 14.823 4.88511 16.722C4.89798 16.8197 4.89148 16.919 4.86598 17.0142C4.84048 17.1094 4.79648 17.1986 4.7365 17.2768C4.61535 17.4347 4.43643 17.538 4.23911 17.564C4.14141 17.5769 4.04213 17.5704 3.94694 17.5449C3.85175 17.5194 3.76251 17.4754 3.68432 17.4154C3.52642 17.2942 3.4231 17.1153 3.39711 16.918C3.10911 14.717 3.45211 12.14 4.75011 9.892C5.80311 8.071 7.39911 6.68 9.51811 5.726C9.60793 5.68553 9.70485 5.66316 9.80332 5.66015C9.90179 5.65715 9.99989 5.67357 10.092 5.70849C10.1841 5.74341 10.2685 5.79613 10.3402 5.86365C10.4119 5.93117 10.4697 6.01216 10.5101 6.102H10.5091ZM12.8521 5.315C14.6821 5.352 16.5041 6.193 18.3111 7.801C20.1341 9.423 21.2321 11.628 21.6051 14.381C21.6206 14.4796 21.6163 14.5803 21.5924 14.6772C21.5685 14.7742 21.5255 14.8653 21.4659 14.9454C21.4063 15.0255 21.3314 15.0929 21.2454 15.1436C21.1594 15.1943 21.0642 15.2274 20.9653 15.2408C20.8664 15.2543 20.7658 15.2478 20.6694 15.2219C20.573 15.196 20.4827 15.151 20.4039 15.0898C20.3251 15.0285 20.2593 14.9521 20.2104 14.8651C20.1615 14.7781 20.1305 14.6822 20.1191 14.583C19.7921 12.171 18.8581 10.296 17.3141 8.922C15.7541 7.534 14.2591 6.844 12.8221 6.815C12.7236 6.81303 12.6265 6.79168 12.5362 6.75217C12.446 6.71266 12.3644 6.65576 12.2962 6.58472C12.2279 6.51368 12.1743 6.4299 12.1385 6.33815C12.1026 6.2464 12.0851 6.14849 12.0871 6.05C12.0891 5.95151 12.1104 5.85437 12.1499 5.76413C12.1895 5.67389 12.2464 5.59231 12.3174 5.52406C12.3884 5.45581 12.4722 5.40222 12.564 5.36635C12.6557 5.33048 12.7536 5.31303 12.8521 5.315ZM5.98111 5.329C6.0468 5.40256 6.09734 5.48835 6.12983 5.58147C6.16232 5.67458 6.17613 5.77319 6.17047 5.87165C6.1648 5.97011 6.13977 6.06648 6.09681 6.15526C6.05385 6.24403 5.99381 6.32346 5.92011 6.389C5.65111 6.627 5.37011 6.912 5.07611 7.243C4.80011 7.555 4.51611 7.959 4.23011 8.456C4.18123 8.54198 4.11581 8.61745 4.03764 8.67805C3.95947 8.73865 3.87009 8.78319 3.77463 8.80911C3.67918 8.83502 3.57954 8.8418 3.48145 8.82905C3.38337 8.8163 3.28877 8.78428 3.20312 8.73482C3.11746 8.68536 3.04243 8.61945 2.98235 8.54088C2.92227 8.46231 2.87832 8.37263 2.85304 8.27701C2.82776 8.18138 2.82164 8.0817 2.83504 7.9837C2.84844 7.8857 2.88109 7.79133 2.93111 7.706C3.22258 7.18706 3.56529 6.69862 3.95411 6.248C4.28511 5.874 4.60811 5.548 4.92211 5.268C4.99565 5.20246 5.08137 5.15205 5.1744 5.11964C5.26742 5.08724 5.36591 5.07348 5.46425 5.07914C5.56259 5.08481 5.65885 5.10979 5.74753 5.15266C5.83622 5.19553 5.91559 5.25545 5.98111 5.329ZM12.5661 2.363C14.7591 2.466 16.5961 3.066 18.0961 4.224C18.2537 4.3456 18.3564 4.5248 18.3818 4.72218C18.4073 4.91957 18.3532 5.11896 18.2316 5.2765C18.11 5.43404 17.9308 5.53682 17.7334 5.56223C17.536 5.58764 17.3367 5.5336 17.1791 5.412C15.9341 4.45 14.3941 3.951 12.4961 3.862C10.5931 3.772 9.03511 4.146 7.78211 4.841C7.39811 5.054 6.96711 4.947 6.75011 4.594C6.6972 4.51049 6.66158 4.41723 6.64536 4.31971C6.62914 4.2222 6.63265 4.12242 6.65569 4.02629C6.67872 3.93015 6.7208 3.83962 6.77945 3.76004C6.83809 3.68046 6.91211 3.61346 6.99711 3.563C8.53211 2.659 10.3791 2.261 12.5671 2.363H12.5661Z" fill="white"/>
</svg>
