<svg width="64" height="64" viewBox="0 0 64 64" fill="none" xmlns="http://www.w3.org/2000/svg">
<path d="M57.7317 53C53.9242 46.4175 48.0567 41.6975 41.2092 39.46C44.5962 37.4436 47.2278 34.3712 48.6997 30.7145C50.1716 27.0577 50.4024 23.019 49.3568 19.2184C48.3112 15.4177 46.0469 12.0654 42.9116 9.67628C39.7763 7.2871 35.9435 5.99316 32.0017 5.99316C28.0598 5.99316 24.227 7.2871 21.0917 9.67628C17.9565 12.0654 15.6921 15.4177 14.6465 19.2184C13.6009 23.019 13.8317 27.0577 15.3036 30.7145C16.7755 34.3712 19.4071 37.4436 22.7942 39.46C15.9467 41.695 10.0792 46.415 6.27165 53C6.13203 53.2276 6.03941 53.481 5.99928 53.745C5.95914 54.0091 5.97229 54.2785 6.03796 54.5373C6.10363 54.7962 6.22049 55.0393 6.38163 55.2523C6.54278 55.4653 6.74495 55.6438 6.97622 55.7774C7.20748 55.911 7.46316 55.9969 7.72817 56.0301C7.99318 56.0633 8.26215 56.043 8.51921 55.9705C8.77626 55.8981 9.01621 55.7749 9.22487 55.6082C9.43354 55.4415 9.60671 55.2347 9.73415 55C14.4442 46.86 22.7692 42 32.0017 42C41.2342 42 49.5592 46.86 54.2692 55C54.3966 55.2347 54.5698 55.4415 54.7784 55.6082C54.9871 55.7749 55.227 55.8981 55.4841 55.9705C55.7412 56.043 56.0101 56.0633 56.2751 56.0301C56.5401 55.9969 56.7958 55.911 57.0271 55.7774C57.2584 55.6438 57.4605 55.4653 57.6217 55.2523C57.7828 55.0393 57.8997 54.7962 57.9653 54.5373C58.031 54.2785 58.0442 54.0091 58.004 53.745C57.9639 53.481 57.8713 53.2276 57.7317 53ZM18.0017 24C18.0017 21.231 18.8227 18.5243 20.3611 16.222C21.8994 13.9197 24.0859 12.1253 26.6441 11.0657C29.2023 10.006 32.0172 9.72878 34.7329 10.269C37.4487 10.8092 39.9432 12.1425 41.9011 14.1005C43.8591 16.0584 45.1925 18.553 45.7326 21.2687C46.2728 23.9844 45.9956 26.7994 44.936 29.3575C43.8763 31.9157 42.0819 34.1022 39.7796 35.6405C37.4773 37.1789 34.7706 38 32.0017 38C28.2898 37.996 24.7312 36.5197 22.1065 33.8951C19.4819 31.2704 18.0056 27.7118 18.0017 24Z" fill="black"/>
</svg>
