<svg width="28" height="28" viewBox="0 0 28 28" fill="none" xmlns="http://www.w3.org/2000/svg">
<path d="M5.83398 9.8946V21.1665C5.83398 21.7188 6.2817 22.1665 6.83398 22.1665H21.1673C21.7196 22.1665 22.1673 21.7188 22.1673 21.1665V18.1787M5.83398 9.8946H19.7476M5.83398 9.8946L18.3958 5.17443C19.0497 4.92874 19.7476 5.41204 19.7476 6.11053L19.7476 9.8946M22.1673 14.5276V10.8946C22.1673 10.3423 21.7196 9.8946 21.1673 9.8946H19.7476M22.1673 14.5276H17.5212C16.9689 14.5276 16.5212 14.9753 16.5212 15.5276V17.1787C16.5212 17.7309 16.9689 18.1787 17.5212 18.1787H22.1673M22.1673 14.5276V18.1787" stroke="#030319" stroke-linejoin="round"/>
</svg>
